<mxfile host="app.diagrams.net" modified="2022-06-13T07:56:40.736Z" agent="5.0 (Windows NT 10.0; Win64; x64) AppleWebKit/537.36 (KHTML, like Gecko) Chrome/102.0.5005.63 Safari/537.36 Edg/102.0.1245.39" etag="pEKblm6zcK1kasd8eF4g" version="20.0.1" type="github">
  <diagram id="C5RBs43oDa-KdzZeNtuy" name="Page-1">
    <mxGraphModel dx="2031" dy="1077" grid="1" gridSize="10" guides="1" tooltips="1" connect="1" arrows="1" fold="1" page="1" pageScale="1" pageWidth="827" pageHeight="1169" math="0" shadow="0">
      <root>
        <mxCell id="WIyWlLk6GJQsqaUBKTNV-0" />
        <mxCell id="WIyWlLk6GJQsqaUBKTNV-1" parent="WIyWlLk6GJQsqaUBKTNV-0" />
        <mxCell id="BbMJ1GcOMtaIJDOMBsal-2" value="" style="edgeStyle=orthogonalEdgeStyle;rounded=0;orthogonalLoop=1;jettySize=auto;html=1;strokeWidth=1;fontSize=13;" parent="WIyWlLk6GJQsqaUBKTNV-1" target="BbMJ1GcOMtaIJDOMBsal-1" edge="1">
          <mxGeometry relative="1" as="geometry">
            <mxPoint x="438.83333333333326" y="20" as="sourcePoint" />
            <Array as="points">
              <mxPoint x="430" y="20" />
              <mxPoint x="430" y="90" />
              <mxPoint x="370" y="90" />
            </Array>
          </mxGeometry>
        </mxCell>
        <mxCell id="uSAOSWP9df11B-LnUE7B-10" style="edgeStyle=orthogonalEdgeStyle;rounded=0;orthogonalLoop=1;jettySize=auto;html=1;fontSize=14;endSize=8;strokeWidth=1;entryX=0;entryY=0.5;entryDx=0;entryDy=0;" edge="1" parent="WIyWlLk6GJQsqaUBKTNV-1" target="uSAOSWP9df11B-LnUE7B-3">
          <mxGeometry relative="1" as="geometry">
            <mxPoint x="430" y="20" as="sourcePoint" />
            <mxPoint x="451" y="60" as="targetPoint" />
            <Array as="points">
              <mxPoint x="430" y="90" />
              <mxPoint x="490" y="90" />
            </Array>
          </mxGeometry>
        </mxCell>
        <mxCell id="BbMJ1GcOMtaIJDOMBsal-0" value="开始" style="strokeWidth=1;html=1;shape=mxgraph.flowchart.terminator;whiteSpace=wrap;fontSize=13;" parent="WIyWlLk6GJQsqaUBKTNV-1" vertex="1">
          <mxGeometry x="390" y="10" width="80" height="40" as="geometry" />
        </mxCell>
        <mxCell id="BbMJ1GcOMtaIJDOMBsal-4" value="" style="edgeStyle=orthogonalEdgeStyle;rounded=0;orthogonalLoop=1;jettySize=auto;html=1;strokeWidth=1;fontSize=13;" parent="WIyWlLk6GJQsqaUBKTNV-1" source="BbMJ1GcOMtaIJDOMBsal-1" target="BbMJ1GcOMtaIJDOMBsal-3" edge="1">
          <mxGeometry relative="1" as="geometry" />
        </mxCell>
        <mxCell id="BbMJ1GcOMtaIJDOMBsal-1" value="登录" style="whiteSpace=wrap;html=1;strokeWidth=1;fontSize=13;" parent="WIyWlLk6GJQsqaUBKTNV-1" vertex="1">
          <mxGeometry x="330" y="160" width="80" height="30" as="geometry" />
        </mxCell>
        <mxCell id="BbMJ1GcOMtaIJDOMBsal-13" value="&lt;font style=&quot;font-size: 12px;&quot;&gt;失败&lt;/font&gt;" style="edgeStyle=orthogonalEdgeStyle;rounded=0;orthogonalLoop=1;jettySize=auto;html=1;fontSize=13;strokeWidth=1;" parent="WIyWlLk6GJQsqaUBKTNV-1" source="BbMJ1GcOMtaIJDOMBsal-3" edge="1">
          <mxGeometry x="-0.1444" relative="1" as="geometry">
            <Array as="points">
              <mxPoint x="290" y="180" />
            </Array>
            <mxPoint as="offset" />
            <mxPoint x="330" y="180" as="targetPoint" />
          </mxGeometry>
        </mxCell>
        <mxCell id="uSAOSWP9df11B-LnUE7B-19" style="edgeStyle=orthogonalEdgeStyle;rounded=0;orthogonalLoop=1;jettySize=auto;html=1;entryX=0.5;entryY=0;entryDx=0;entryDy=0;fontSize=12;endSize=8;strokeWidth=1;" edge="1" parent="WIyWlLk6GJQsqaUBKTNV-1" source="BbMJ1GcOMtaIJDOMBsal-3" target="BbMJ1GcOMtaIJDOMBsal-14">
          <mxGeometry relative="1" as="geometry" />
        </mxCell>
        <mxCell id="uSAOSWP9df11B-LnUE7B-20" style="edgeStyle=orthogonalEdgeStyle;rounded=0;orthogonalLoop=1;jettySize=auto;html=1;fontSize=12;endSize=8;strokeWidth=1;" edge="1" parent="WIyWlLk6GJQsqaUBKTNV-1" source="BbMJ1GcOMtaIJDOMBsal-3" target="BbMJ1GcOMtaIJDOMBsal-16">
          <mxGeometry relative="1" as="geometry" />
        </mxCell>
        <mxCell id="BbMJ1GcOMtaIJDOMBsal-3" value="验证账户和密码" style="rhombus;whiteSpace=wrap;html=1;strokeWidth=1;fontSize=13;" parent="WIyWlLk6GJQsqaUBKTNV-1" vertex="1">
          <mxGeometry x="290" y="230" width="160" height="70" as="geometry" />
        </mxCell>
        <mxCell id="uSAOSWP9df11B-LnUE7B-21" style="edgeStyle=orthogonalEdgeStyle;rounded=0;orthogonalLoop=1;jettySize=auto;html=1;entryX=0.002;entryY=0.33;entryDx=0;entryDy=0;fontSize=12;endSize=8;strokeWidth=1;entryPerimeter=0;" edge="1" parent="WIyWlLk6GJQsqaUBKTNV-1" source="BbMJ1GcOMtaIJDOMBsal-14" target="BbMJ1GcOMtaIJDOMBsal-24">
          <mxGeometry relative="1" as="geometry">
            <Array as="points">
              <mxPoint x="190" y="390" />
              <mxPoint x="190" y="570" />
            </Array>
          </mxGeometry>
        </mxCell>
        <mxCell id="BbMJ1GcOMtaIJDOMBsal-14" value="文件管理模块" style="whiteSpace=wrap;html=1;fontSize=13;strokeWidth=1;" parent="WIyWlLk6GJQsqaUBKTNV-1" vertex="1">
          <mxGeometry x="240" y="370" width="100" height="40" as="geometry" />
        </mxCell>
        <mxCell id="BbMJ1GcOMtaIJDOMBsal-32" value="" style="edgeStyle=orthogonalEdgeStyle;rounded=0;orthogonalLoop=1;jettySize=auto;html=1;fontSize=13;strokeWidth=1;" parent="WIyWlLk6GJQsqaUBKTNV-1" source="BbMJ1GcOMtaIJDOMBsal-16" target="BbMJ1GcOMtaIJDOMBsal-30" edge="1">
          <mxGeometry relative="1" as="geometry" />
        </mxCell>
        <mxCell id="BbMJ1GcOMtaIJDOMBsal-16" value="个人管理模块" style="whiteSpace=wrap;html=1;fontSize=13;strokeWidth=1;" parent="WIyWlLk6GJQsqaUBKTNV-1" vertex="1">
          <mxGeometry x="410" y="370" width="100" height="40" as="geometry" />
        </mxCell>
        <mxCell id="uSAOSWP9df11B-LnUE7B-24" style="edgeStyle=orthogonalEdgeStyle;rounded=0;orthogonalLoop=1;jettySize=auto;html=1;entryX=0.5;entryY=0;entryDx=0;entryDy=0;fontSize=12;endSize=8;strokeWidth=1;exitX=1;exitY=0.5;exitDx=0;exitDy=0;" edge="1" parent="WIyWlLk6GJQsqaUBKTNV-1" source="BbMJ1GcOMtaIJDOMBsal-22" target="BbMJ1GcOMtaIJDOMBsal-35">
          <mxGeometry relative="1" as="geometry">
            <Array as="points">
              <mxPoint x="370" y="465" />
            </Array>
          </mxGeometry>
        </mxCell>
        <mxCell id="BbMJ1GcOMtaIJDOMBsal-22" value="文件删除恢复" style="whiteSpace=wrap;html=1;fontSize=13;strokeWidth=1;" parent="WIyWlLk6GJQsqaUBKTNV-1" vertex="1">
          <mxGeometry x="240" y="450" width="100" height="30" as="geometry" />
        </mxCell>
        <mxCell id="uSAOSWP9df11B-LnUE7B-26" style="edgeStyle=orthogonalEdgeStyle;rounded=0;orthogonalLoop=1;jettySize=auto;html=1;fontSize=12;endSize=8;strokeWidth=1;endArrow=none;endFill=0;" edge="1" parent="WIyWlLk6GJQsqaUBKTNV-1" source="BbMJ1GcOMtaIJDOMBsal-24">
          <mxGeometry relative="1" as="geometry">
            <mxPoint x="370" y="575" as="targetPoint" />
          </mxGeometry>
        </mxCell>
        <mxCell id="BbMJ1GcOMtaIJDOMBsal-24" value="文件共享接收" style="whiteSpace=wrap;html=1;fontSize=13;strokeWidth=1;" parent="WIyWlLk6GJQsqaUBKTNV-1" vertex="1">
          <mxGeometry x="240" y="560" width="100" height="30" as="geometry" />
        </mxCell>
        <mxCell id="uSAOSWP9df11B-LnUE7B-25" style="edgeStyle=orthogonalEdgeStyle;rounded=0;orthogonalLoop=1;jettySize=auto;html=1;fontSize=12;endSize=8;strokeWidth=1;endArrow=none;endFill=0;" edge="1" parent="WIyWlLk6GJQsqaUBKTNV-1" source="BbMJ1GcOMtaIJDOMBsal-20">
          <mxGeometry relative="1" as="geometry">
            <mxPoint x="370" y="515" as="targetPoint" />
          </mxGeometry>
        </mxCell>
        <mxCell id="BbMJ1GcOMtaIJDOMBsal-20" value="文件上传下载" style="whiteSpace=wrap;html=1;fontSize=13;strokeWidth=1;" parent="WIyWlLk6GJQsqaUBKTNV-1" vertex="1">
          <mxGeometry x="240" y="500" width="100" height="30" as="geometry" />
        </mxCell>
        <mxCell id="uSAOSWP9df11B-LnUE7B-27" style="edgeStyle=orthogonalEdgeStyle;rounded=0;orthogonalLoop=1;jettySize=auto;html=1;fontSize=12;endArrow=none;endFill=0;endSize=8;strokeWidth=1;" edge="1" parent="WIyWlLk6GJQsqaUBKTNV-1" source="BbMJ1GcOMtaIJDOMBsal-30">
          <mxGeometry relative="1" as="geometry">
            <mxPoint x="370" y="475" as="targetPoint" />
            <Array as="points">
              <mxPoint x="370" y="465" />
            </Array>
          </mxGeometry>
        </mxCell>
        <mxCell id="BbMJ1GcOMtaIJDOMBsal-30" value="用户信息修改" style="whiteSpace=wrap;html=1;fontSize=13;strokeWidth=1;" parent="WIyWlLk6GJQsqaUBKTNV-1" vertex="1">
          <mxGeometry x="401.25" y="450" width="117.5" height="30" as="geometry" />
        </mxCell>
        <mxCell id="BbMJ1GcOMtaIJDOMBsal-43" style="edgeStyle=orthogonalEdgeStyle;rounded=0;orthogonalLoop=1;jettySize=auto;html=1;fontSize=13;startArrow=none;startFill=0;endArrow=classic;endFill=1;strokeWidth=1;" parent="WIyWlLk6GJQsqaUBKTNV-1" source="BbMJ1GcOMtaIJDOMBsal-35" target="BbMJ1GcOMtaIJDOMBsal-42" edge="1">
          <mxGeometry relative="1" as="geometry" />
        </mxCell>
        <mxCell id="BbMJ1GcOMtaIJDOMBsal-35" value="退出登录" style="whiteSpace=wrap;html=1;fontSize=13;strokeWidth=1;" parent="WIyWlLk6GJQsqaUBKTNV-1" vertex="1">
          <mxGeometry x="320" y="680" width="100" height="30" as="geometry" />
        </mxCell>
        <mxCell id="BbMJ1GcOMtaIJDOMBsal-42" value="结束" style="strokeWidth=1;html=1;shape=mxgraph.flowchart.terminator;whiteSpace=wrap;fontSize=13;" parent="WIyWlLk6GJQsqaUBKTNV-1" vertex="1">
          <mxGeometry x="330" y="740" width="80" height="40" as="geometry" />
        </mxCell>
        <mxCell id="uSAOSWP9df11B-LnUE7B-15" style="edgeStyle=orthogonalEdgeStyle;rounded=0;orthogonalLoop=1;jettySize=auto;html=1;fontSize=14;endSize=8;strokeWidth=1;" edge="1" parent="WIyWlLk6GJQsqaUBKTNV-1" source="uSAOSWP9df11B-LnUE7B-3" target="uSAOSWP9df11B-LnUE7B-7">
          <mxGeometry relative="1" as="geometry" />
        </mxCell>
        <mxCell id="uSAOSWP9df11B-LnUE7B-3" value="注册" style="whiteSpace=wrap;html=1;strokeWidth=1;fontSize=13;" vertex="1" parent="WIyWlLk6GJQsqaUBKTNV-1">
          <mxGeometry x="500" y="80" width="80" height="20" as="geometry" />
        </mxCell>
        <mxCell id="uSAOSWP9df11B-LnUE7B-12" style="edgeStyle=orthogonalEdgeStyle;rounded=0;orthogonalLoop=1;jettySize=auto;html=1;fontSize=14;endSize=8;strokeWidth=1;" edge="1" parent="WIyWlLk6GJQsqaUBKTNV-1" source="uSAOSWP9df11B-LnUE7B-7" target="BbMJ1GcOMtaIJDOMBsal-1">
          <mxGeometry relative="1" as="geometry" />
        </mxCell>
        <mxCell id="uSAOSWP9df11B-LnUE7B-17" style="edgeStyle=orthogonalEdgeStyle;rounded=0;orthogonalLoop=1;jettySize=auto;html=1;entryX=1;entryY=0.5;entryDx=0;entryDy=0;fontSize=14;endSize=8;strokeWidth=1;exitX=1;exitY=0.5;exitDx=0;exitDy=0;" edge="1" parent="WIyWlLk6GJQsqaUBKTNV-1" source="uSAOSWP9df11B-LnUE7B-7" target="uSAOSWP9df11B-LnUE7B-3">
          <mxGeometry relative="1" as="geometry" />
        </mxCell>
        <mxCell id="uSAOSWP9df11B-LnUE7B-18" value="失败" style="edgeLabel;html=1;align=center;verticalAlign=middle;resizable=0;points=[];fontSize=11;" vertex="1" connectable="0" parent="uSAOSWP9df11B-LnUE7B-17">
          <mxGeometry relative="1" as="geometry">
            <mxPoint as="offset" />
          </mxGeometry>
        </mxCell>
        <mxCell id="uSAOSWP9df11B-LnUE7B-29" style="edgeStyle=orthogonalEdgeStyle;rounded=0;orthogonalLoop=1;jettySize=auto;html=1;entryX=1;entryY=0.5;entryDx=0;entryDy=0;entryPerimeter=0;fontSize=12;endArrow=none;endFill=0;endSize=8;strokeWidth=1;" edge="1" parent="WIyWlLk6GJQsqaUBKTNV-1" source="uSAOSWP9df11B-LnUE7B-7" target="BbMJ1GcOMtaIJDOMBsal-42">
          <mxGeometry relative="1" as="geometry">
            <Array as="points">
              <mxPoint x="540" y="760" />
            </Array>
          </mxGeometry>
        </mxCell>
        <mxCell id="uSAOSWP9df11B-LnUE7B-7" value="注册验证" style="rhombus;whiteSpace=wrap;html=1;strokeWidth=1;fontSize=13;" vertex="1" parent="WIyWlLk6GJQsqaUBKTNV-1">
          <mxGeometry x="495" y="155" width="90" height="40" as="geometry" />
        </mxCell>
        <mxCell id="uSAOSWP9df11B-LnUE7B-22" value="" style="endArrow=classic;html=1;rounded=0;fontSize=12;endSize=8;strokeWidth=1;entryX=0;entryY=0.5;entryDx=0;entryDy=0;" edge="1" parent="WIyWlLk6GJQsqaUBKTNV-1" target="BbMJ1GcOMtaIJDOMBsal-20">
          <mxGeometry width="50" height="50" relative="1" as="geometry">
            <mxPoint x="190" y="515" as="sourcePoint" />
            <mxPoint x="120" y="480" as="targetPoint" />
          </mxGeometry>
        </mxCell>
        <mxCell id="uSAOSWP9df11B-LnUE7B-23" value="" style="endArrow=classic;html=1;rounded=0;fontSize=12;endSize=8;strokeWidth=1;entryX=0;entryY=0.5;entryDx=0;entryDy=0;" edge="1" parent="WIyWlLk6GJQsqaUBKTNV-1" target="BbMJ1GcOMtaIJDOMBsal-22">
          <mxGeometry width="50" height="50" relative="1" as="geometry">
            <mxPoint x="190" y="465" as="sourcePoint" />
            <mxPoint x="230" y="450" as="targetPoint" />
          </mxGeometry>
        </mxCell>
      </root>
    </mxGraphModel>
  </diagram>
</mxfile>
